<?xml version="1.0" standalone="no"?>
<!DOCTYPE svg PUBLIC "-//W3C//DTD SVG 20010904//EN"
 "http://www.w3.org/TR/2001/REC-SVG-20010904/DTD/svg10.dtd">
<svg version="1.0" xmlns="http://www.w3.org/2000/svg"
 width="1003.000000pt" height="1003.000000pt" viewBox="0 0 1003.000000 1003.000000"
 preserveAspectRatio="xMidYMid meet">

<g transform="translate(0.000000,1003.000000) scale(0.100000,-0.100000)"
fill="#000000" stroke="none">
<path d="M4675 10019 c-1811 -136 -3374 -1189 -4165 -2804 -778 -1589 -657
-3479 317 -4958 204 -310 486 -646 738 -881 l113 -106 65 45 c152 106 302 154
502 162 258 10 484 -59 703 -214 119 -85 292 -262 292 -298 0 -8 -30 -47 -67
-87 -88 -95 -217 -247 -277 -325 l-47 -63 58 -26 c32 -14 77 -34 100 -44 l42
-19 53 67 c192 244 515 582 721 755 635 532 1199 685 1768 477 180 -65 352
-181 519 -351 125 -125 270 -330 270 -379 0 -7 -75 -91 -167 -187 -461 -484
-569 -590 -705 -695 -43 -34 -76 -63 -74 -66 6 -6 221 16 315 33 l74 13 141
143 c78 79 215 225 306 324 318 346 513 525 732 671 197 130 426 226 624 260
143 24 347 15 468 -21 95 -28 184 -69 253 -117 l42 -28 158 157 c653 652 1102
1438 1329 2330 205 805 205 1651 0 2456 -283 1110 -918 2070 -1831 2767 -719
550 -1612 901 -2530 995 -188 19 -666 28 -840 14z m-907 -481 c54 -112 59
-122 157 -343 94 -211 91 -206 105 -250 7 -22 16 -45 21 -51 23 -29 52 -193
51 -289 0 -157 -44 -265 -149 -367 -62 -60 -193 -130 -193 -102 0 3 18 44 41
91 84 179 88 280 17 420 l-43 86 -62 1 -61 1 -30 -50 c-89 -150 -89 -272 -1
-463 36 -78 37 -96 7 -86 -90 27 -216 141 -260 234 -15 30 -34 93 -44 140 -14
73 -15 98 -5 173 16 119 37 177 151 417 99 205 172 377 205 480 21 66 24 72
34 65 5 -2 31 -51 59 -107z m2680 -26 c37 -76 76 -158 86 -182 11 -25 32 -73
47 -107 170 -374 210 -537 180 -720 -23 -132 -101 -252 -209 -322 -51 -32
-110 -57 -118 -48 -3 2 7 31 22 63 56 124 75 181 81 239 7 75 -14 160 -58 238
l-33 57 -58 0 c-32 0 -61 1 -65 1 -16 3 -84 -150 -94 -210 -13 -82 0 -147 52
-269 23 -54 44 -103 46 -109 16 -40 -106 19 -179 86 -112 102 -159 215 -159
379 0 139 33 247 143 472 100 205 176 384 203 475 17 62 32 95 41 95 3 0 35
-62 72 -138z m-2377 -1605 c18 -12 44 -38 56 -56 l23 -34 -2 -1026 -3 -1026
-433 -3 c-341 -2 -433 0 -437 10 -2 7 -6 459 -8 1003 -4 1039 -4 1058 39 1106
40 46 60 48 405 49 323 0 326 0 360 -23z m2662 8 c18 -8 43 -32 57 -52 l25
-37 0 -1030 0 -1031 -435 0 -435 0 0 1035 0 1035 22 31 c44 62 54 64 411 64
268 0 329 -3 355 -15z m-2218 -2349 c18 -13 18 -15 0 -61 -26 -70 -131 -173
-222 -219 -40 -20 -79 -36 -87 -36 -36 0 -55 -34 -65 -120 -6 -47 -17 -139
-26 -205 -21 -169 -20 -181 10 -189 14 -4 32 -17 40 -30 32 -49 -23 -157 -110
-218 l-45 -32 0 -100 c0 -165 29 -270 103 -377 52 -77 102 -115 220 -166 112
-49 159 -80 210 -141 39 -47 80 -143 71 -167 -6 -13 -106 -15 -903 -13 l-896
3 1 31 c2 47 53 141 102 186 24 22 83 58 130 80 48 22 102 47 121 56 53 27
144 122 173 183 53 108 60 138 65 284 l5 140 -46 33 c-57 41 -90 85 -106 139
-16 54 -7 91 28 106 34 14 43 27 36 49 -4 15 -15 94 -45 343 -12 98 -17 110
-55 119 -97 25 -216 105 -279 188 -48 64 -64 111 -45 133 18 22 1586 22 1615
1z m2670 -2 c18 -19 13 -41 -23 -99 -57 -93 -148 -164 -259 -205 -35 -12 -67
-28 -72 -34 -5 -6 -21 -109 -35 -229 -15 -120 -27 -222 -27 -225 -3 -21 3 -32
16 -32 25 0 55 -38 55 -69 0 -63 -56 -149 -127 -192 l-35 -22 5 -136 c4 -116
9 -147 32 -211 49 -135 119 -218 231 -274 29 -14 55 -26 59 -26 3 0 35 -14 71
-31 103 -50 189 -157 201 -250 l6 -39 -899 2 -899 3 2 38 c6 101 109 212 251
270 115 48 174 88 224 150 81 103 108 190 115 372 l5 130 -48 35 c-64 47 -105
106 -111 163 -6 46 -3 51 54 95 20 16 21 22 13 77 -5 33 -19 134 -31 225 -12
91 -26 170 -31 177 -5 6 -20 14 -33 17 -107 27 -252 136 -306 230 -33 59 -36
81 -11 95 11 7 288 10 804 11 709 0 788 -2 803 -16z m-1782 -2438 c234 -50
411 -124 591 -245 96 -64 256 -206 256 -226 0 -5 -48 -34 -106 -64 -276 -140
-571 -382 -711 -582 l-28 -40 -85 8 c-203 19 -513 2 -604 -33 -8 -3 -24 12
-41 43 -158 275 -397 494 -687 633 -60 28 -108 58 -108 65 0 17 84 90 198 173
178 128 465 244 699 282 173 28 461 22 626 -14z m-1793 -571 c261 -64 463
-172 643 -344 118 -113 263 -311 241 -330 -5 -4 -49 -25 -99 -46 -285 -119
-621 -354 -906 -633 l-87 -84 -128 129 c-357 357 -755 489 -1239 410 -37 -6
32 192 111 321 65 105 242 282 361 360 143 93 338 180 482 213 196 46 444 48
621 4z m3485 11 c278 -61 533 -201 721 -397 141 -148 238 -321 260 -464 l6
-46 -63 8 c-115 14 -386 9 -483 -11 -301 -59 -676 -255 -934 -489 -29 -26 -57
-45 -62 -42 -4 3 -21 26 -36 53 -94 161 -287 372 -457 499 -106 78 -305 189
-382 213 -22 7 -44 16 -48 20 -13 12 158 195 262 282 160 133 333 239 486 298
100 38 246 79 328 90 87 12 319 4 402 -14z"/>
</g>
</svg>
